<svg xmlns="http://www.w3.org/2000/svg" viewBox="0 0 64 64">
  <!-- Vine stem -->
  <path d="M32 60 Q27 48 19 38 Q13 28 17 17 Q21 8 30 6"
        stroke="#7c3aed" stroke-width="2.8" fill="none" stroke-linecap="round"/>
  <!-- Branch right -->
  <path d="M24 30 Q33 25 35 15"
        stroke="#7c3aed" stroke-width="2.2" fill="none" stroke-linecap="round"/>
  <!-- Tendril curl -->
  <path d="M30 6 Q40 3 37 13 Q35 18 29 15"
        stroke="#9333ea" stroke-width="1.4" fill="none" stroke-linecap="round"/>

  <!-- Grape cluster (lower bunch) -->
  <circle cx="24" cy="54" r="4.2" fill="#6d28d9"/>
  <circle cx="33" cy="54" r="4.2" fill="#6d28d9"/>
  <circle cx="28.5" cy="46.5" r="4.2" fill="#7c3aed"/>
  <circle cx="20"   cy="47"   r="4.2" fill="#7c3aed"/>
  <circle cx="37"   cy="47"   r="4.2" fill="#7c3aed"/>
  <circle cx="24"   cy="40"   r="3.8" fill="#8b5cf6"/>
  <circle cx="33"   cy="40"   r="3.8" fill="#8b5cf6"/>
  <circle cx="28.5" cy="33.5" r="3.4" fill="#a78bfa"/>
  <circle cx="21.5" cy="34"   r="3.4" fill="#a78bfa"/>
  <circle cx="35.5" cy="34"   r="3.4" fill="#a78bfa"/>
  <circle cx="28.5" cy="27"   r="3"   fill="#c4b5fd"/>

  <!-- Left leaf -->
  <path d="M19 22 Q6 12 12 26 Q16 33 22 27 Q23 22 19 22Z" fill="#15803d"/>
  <line x1="12" y1="26" x2="20" y2="24" stroke="#166534" stroke-width="0.9" opacity="0.7"/>
  <line x1="16" y1="30" x2="21" y2="26" stroke="#166534" stroke-width="0.7" opacity="0.5"/>

  <!-- Right leaf -->
  <path d="M31 18 Q44 8 38 22 Q34 29 28 23 Q27 18 31 18Z" fill="#15803d"/>
  <line x1="38" y1="22" x2="30" y2="20" stroke="#166534" stroke-width="0.9" opacity="0.7"/>
  <line x1="35" y1="26" x2="29" y2="22" stroke="#166534" stroke-width="0.7" opacity="0.5"/>
</svg>
